<mxfile host="app.diagrams.net" modified="2023-04-03T18:54:41.129Z" agent="Mozilla/5.0 (Windows NT 10.0; Win64; x64) AppleWebKit/537.36 (KHTML, like Gecko) Chrome/111.0.0.0 Safari/537.36" version="21.1.2" etag="2qn9vnyZVVMP17njPGOE" type="github">
  <diagram name="Page-1" id="bpJM1O9OX4b6oMvIPCPx">
    <mxGraphModel>
      <root>
        <mxCell id="0" />
        <mxCell id="1" parent="0" />
      </root>
    </mxGraphModel>
  </diagram>
</mxfile>
